Coordinates
version=1
nRows=41
nColumns=38
inDegrees=no

Units are S.I. units (second, meters, Newtons, ...)
If the header above contains a line with 'inDegrees', this indicates whether rotational values are in degrees (yes) or radians (no).

endheader
time	pelvis_tilt	pelvis_list	pelvis_rotation	pelvis_tx	pelvis_ty	pelvis_tz	hip_flexion_r	hip_adduction_r	hip_rotation_r	knee_angle_r	ankle_angle_r	subtalar_angle_r	mtp_angle_r	hip_flexion_l	hip_adduction_l	hip_rotation_l	knee_angle_l	ankle_angle_l	subtalar_angle_l	mtp_angle_l	lumbar_extension	lumbar_bending	lumbar_rotation	arm_flex_r	arm_add_r	arm_rot_r	elbow_flex_r	pro_sup_r	wrist_flex_r	wrist_dev_r	arm_flex_l	arm_add_l	arm_rot_l	elbow_flex_l	pro_sup_l	wrist_flex_l	wrist_dev_l
0	0.700799	1.44703	0.999331	0.519785	-0.321266	1.00265	0.540152	0.0595106	-0.196422	0.540804	-0.154718	0	0	0.035462	-0.235658	-0.148972	0.991775	-0.366801	0	0	-0.130114	0.199734	-0.0341255	-0.209865	-0.257186	0.499769	0.378192	0.879091	0	0	0.0951443	-0.381693	0.895711	0.278349	1.10102	0	0
0.01	0.663369	1.44819	1.02818	0.52103	-0.31075	1.00331	0.533118	0.0603409	-0.18851	0.546038	-0.142711	0	0	0.062446	-0.224566	-0.120959	1.03825	-0.356083	0	0	-0.129385	0.196997	-0.0238803	-0.212556	-0.258825	0.492767	0.382219	0.87959	0	0	0.081573	-0.375198	0.899405	0.275166	1.10572	0	0
0.02	0.655399	1.45335	1.02621	0.522265	-0.299605	1.00452	0.518017	0.0630157	-0.181847	0.54798	-0.132991	0	0	0.0812371	-0.216906	-0.104108	1.08308	-0.340718	0	0	-0.134299	0.19497	-0.0117811	-0.215192	-0.261095	0.487448	0.385762	0.879571	0	0	0.0683865	-0.367423	0.898227	0.270839	1.11634	0	0
0.03	0.661329	1.46079	1.01091	0.523398	-0.288458	1.00602	0.499199	0.0655751	-0.176109	0.54847	-0.125554	0	0	0.0978134	-0.210577	-0.0924229	1.12902	-0.322788	0	0	-0.142446	0.192918	-0.000483099	-0.216558	-0.263587	0.482793	0.388549	0.880172	0	0	0.0556602	-0.359294	0.891534	0.266607	1.13293	0	0
0.04	0.676702	1.46929	0.987121	0.524494	-0.277405	1.00754	0.47873	0.0678138	-0.171191	0.548676	-0.110627	0	0	0.11448	-0.20551	-0.0843685	1.17715	-0.29514	0	0	-0.148059	0.190305	0.0195208	-0.224448	-0.265771	0.477556	0.392757	0.8646	0	0	0.0564734	-0.356735	0.97945	0.263978	1.05949	0	0
0.05	0.69157	1.47716	0.964363	0.525523	-0.266426	1.00911	0.457787	0.0700064	-0.165958	0.545941	-0.101766	0	0	0.133353	-0.200759	-0.0779137	1.22466	-0.271388	0	0	-0.155766	0.187865	0.0310917	-0.226779	-0.268581	0.473493	0.395545	0.8611	0	0	0.0466319	-0.35032	0.985045	0.261042	1.06552	0	0
0.06	0.709214	1.48624	0.937601	0.526509	-0.25584	1.01079	0.435556	0.0715852	-0.158517	0.542001	-0.0951083	0	0	0.15164	-0.195453	-0.0744936	1.26919	-0.251778	0	0	-0.16577	0.184405	0.0441701	-0.228474	-0.272277	0.469814	0.399316	0.85804	0	0	0.0382121	-0.344058	0.988207	0.259397	1.07274	0	0
0.07	0.729099	1.49602	0.906096	0.527522	-0.2457	1.01251	0.412837	0.0731055	-0.147428	0.53734	-0.0897278	0	0	0.169192	-0.190171	-0.075441	1.30955	-0.234872	0	0	-0.17779	0.179847	0.0595369	-0.229297	-0.277132	0.466646	0.40409	0.855445	0	0	0.0309086	-0.337859	0.988343	0.258813	1.08076	0	0
0.08	0.756482	1.50447	0.870913	0.528559	-0.236051	1.01463	0.38914	0.0743277	-0.139577	0.52835	-0.0851674	0	0	0.190074	-0.186878	-0.0737236	1.34612	-0.221953	0	0	-0.183746	0.177133	0.0707905	-0.229439	-0.280896	0.46476	0.40546	0.854093	0	0	0.0235077	-0.330435	0.98325	0.257947	1.09047	0	0
0.09	0.7979	1.51018	0.823996	0.529027	-0.225281	1.01578	0.364273	0.075944	-0.136202	0.514842	-0.0810645	0	0	0.212467	-0.183712	-0.0690282	1.37783	-0.210367	0	0	-0.191544	0.174616	0.0827715	-0.231372	-0.284495	0.468485	0.405351	0.837612	0	0	0.0208381	-0.328224	1.03148	0.256722	1.04826	0	0
0.1	0.833078	1.51515	0.785145	0.529532	-0.215111	1.01731	0.339993	0.0770097	-0.133776	0.499502	-0.0787563	0	0	0.237215	-0.180188	-0.0619176	1.40475	-0.202374	0	0	-0.195969	0.173076	0.0885934	-0.230604	-0.287329	0.468777	0.403377	0.834049	0	0	0.0126427	-0.322524	1.02971	0.25505	1.05055	0	0
0.11	0.868793	1.51912	0.746936	0.529921	-0.204994	1.01878	0.315998	0.0780546	-0.132719	0.482518	-0.0776291	0	0	0.262725	-0.177052	-0.0546486	1.42637	-0.195233	0	0	-0.199059	0.172126	0.0927387	-0.229753	-0.290073	0.46872	0.401173	0.8313	0	0	0.00432063	-0.316782	1.02547	0.253374	1.0527	0	0
0.12	0.917729	1.52253	0.694417	0.530336	-0.195027	1.02025	0.29138	0.0803316	-0.129262	0.463427	-0.0776074	0	0	0.287443	-0.174647	-0.0491253	1.44294	-0.187368	0	0	-0.202746	0.171572	0.0981424	-0.229356	-0.293391	0.468039	0.400382	0.829235	0	0	-0.00329029	-0.31087	1.01906	0.252074	1.05581	0	0
0.13	0.979907	1.52592	0.62783	0.530808	-0.185175	1.02171	0.265928	0.083093	-0.123927	0.4427	-0.077702	0	0	0.310801	-0.172804	-0.0459826	1.45471	-0.178841	0	0	-0.20706	0.170888	0.104058	-0.229039	-0.296925	0.466631	0.400493	0.827731	0	0	-0.0104309	-0.305182	1.01054	0.251476	1.06066	0	0
0.14	1.05798	1.53002	0.545477	0.531389	-0.175978	1.02347	0.240339	0.0851639	-0.117659	0.422629	-0.0767533	0	0	0.333406	-0.17045	-0.044006	1.46261	-0.170412	0	0	-0.207613	0.170306	0.110371	-0.229555	-0.300291	0.464637	0.400737	0.826907	0	0	-0.015882	-0.298776	1.00002	0.252524	1.06793	0	0
0.15	1.19032	1.53276	0.407764	0.531759	-0.165639	1.02476	0.209061	0.0892153	-0.108901	0.392737	-0.091705	0	0	0.351702	-0.169037	-0.0441288	1.46564	-0.160811	0	0	-0.216667	0.169864	0.121997	-0.235676	-0.302797	0.447644	0.406076	0.830767	0	0	-0.0161157	-0.297633	1.04244	0.253846	1.0278	0	0
0.16	1.3321	1.53565	0.260576	0.532277	-0.155938	1.02629	0.179266	0.0918527	-0.10012	0.365675	-0.0986013	0	0	0.370191	-0.166749	-0.0457271	1.46512	-0.153796	0	0	-0.222915	0.168865	0.129097	-0.237783	-0.306689	0.441476	0.410541	0.830505	0	0	-0.0205803	-0.293472	1.03853	0.255699	1.03291	0	0
0.17	1.51845	1.53826	0.0683761	0.532827	-0.146289	1.02784	0.148048	0.0939071	-0.0894892	0.337227	-0.106333	0	0	0.38657	-0.164015	-0.0491386	1.46054	-0.148435	0	0	-0.230313	0.167232	0.13613	-0.240022	-0.310765	0.435238	0.416263	0.830273	0	0	-0.0247965	-0.289828	1.03269	0.258911	1.03859	0	0
0.18	1.66202	1.54075	-0.0809699	0.533347	-0.136652	1.02914	0.121689	0.0941007	-0.0810795	0.315316	-0.0958271	0	0	0.404488	-0.159741	-0.0530713	1.45253	-0.144636	0	0	-0.233716	0.164367	0.141392	-0.239498	-0.315224	0.442826	0.418033	0.818318	0	0	-0.0293081	-0.287271	1.03406	0.263062	1.03587	0	0
0.19	1.98913	1.54048	-0.413388	0.534097	-0.127688	1.03121	0.0857873	0.0956585	-0.0677483	0.281497	-0.114932	0	0	0.416079	-0.158422	-0.0608984	1.44029	-0.141057	0	0	-0.240076	0.163581	0.147775	-0.243606	-0.318219	0.426181	0.426527	0.829583	0	0	-0.031893	-0.282576	1.0155	0.269291	1.05514	0	0
0.2	2.12891	1.53902	-0.56146	0.534642	-0.117159	1.03197	0.0550399	0.0976395	-0.0550203	0.250738	-0.118747	0	0	0.42904	-0.159411	-0.0743755	1.42439	-0.137554	0	0	-0.248513	0.160689	0.15585	-0.247049	-0.321922	0.419382	0.43366	0.828458	0	0	-0.0360009	-0.282669	1.02658	0.275035	1.04479	0	0
0.21	2.33545	1.53472	-0.776494	0.535565	-0.107315	1.03329	0.0192664	0.0995758	-0.0397992	0.215755	-0.130169	0	0	0.437334	-0.164723	-0.0947307	1.40493	-0.13497	0	0	-0.256695	0.158884	0.165728	-0.252906	-0.325632	0.407304	0.444319	0.829141	0	0	-0.0373587	-0.282522	1.03526	0.284459	1.03552	0	0
0.22	2.49932	1.52789	-0.950056	0.536732	-0.0974105	1.03454	-0.018136	0.101647	-0.0237756	0.180207	-0.143608	0	0	0.442317	-0.17807	-0.128316	1.38255	-0.135111	0	0	-0.266364	0.156986	0.176382	-0.259398	-0.328948	0.392894	0.456401	0.831828	0	0	-0.0390483	-0.283934	1.04142	0.296192	1.03063	0	0
0.23	2.61334	1.52084	-1.07439	0.53796	-0.0875939	1.03555	-0.0548517	0.102513	-0.00865906	0.144831	-0.158036	0	0	0.444864	-0.191234	-0.164236	1.35596	-0.134517	0	0	-0.275453	0.154393	0.186832	-0.265613	-0.331661	0.377686	0.468376	0.836248	0	0	-0.0411145	-0.286318	1.04561	0.309046	1.02993	0	0
0.24	2.68198	1.51593	-1.15312	0.539107	-0.0779388	1.03618	-0.0875026	0.102077	0.00410998	0.111429	-0.17266	0	0	0.447912	-0.198359	-0.192828	1.32466	-0.130861	0	0	-0.281586	0.151469	0.195645	-0.270979	-0.333763	0.362324	0.479372	0.842374	0	0	-0.043951	-0.287937	1.04562	0.320865	1.02935	0	0
0.25	2.72706	1.51173	-1.20755	0.5402	-0.0683999	1.03658	-0.117595	0.101335	0.0151942	0.0808199	-0.192103	0	0	0.450222	-0.202593	-0.217392	1.28906	-0.126271	0	0	-0.28922	0.148388	0.197781	-0.272507	-0.334612	0.341097	0.490148	0.864339	0	0	-0.0534186	-0.28605	0.999235	0.331236	1.06665	0	0
0.26	2.78107	1.50443	-1.27025	0.541332	-0.0590343	1.03696	-0.156809	0.100305	0.0352563	0.0363633	-0.219631	0	0	0.446877	-0.206042	-0.242683	1.24937	-0.121684	0	0	-0.298397	0.144795	0.205611	-0.279086	-0.332644	0.310389	0.502418	0.890457	0	0	-0.0544192	-0.291238	1.00562	0.34854	1.04858	0	0
0.27	2.78855	1.50436	-1.28625	0.542347	-0.0495846	1.03642	-0.179067	0.0986912	0.0443079	0.0129343	-0.219431	0	0	0.451146	-0.207586	-0.26489	1.20814	-0.117732	0	0	-0.297888	0.141294	0.209061	-0.278783	-0.333971	0.307797	0.50722	0.892065	0	0	-0.0595677	-0.292572	0.994623	0.359045	1.04634	0	0
0.28	2.7816	1.50596	-1.2881	0.543312	-0.0401393	1.03542	-0.195642	0.0969026	0.0486034	0	-0.21659	0	0	0.455742	-0.208809	-0.287343	1.16482	-0.113547	0	0	-0.295312	0.137934	0.212525	-0.27829	-0.3353	0.306269	0.511448	0.893283	0	0	-0.0647232	-0.293256	0.983471	0.367668	1.04488	0	0
0.29	2.76739	1.5082	-1.2814	0.544133	-0.0308354	1.03412	-0.208665	0.094953	0.0490109	0	-0.213581	0	0	0.460397	-0.208402	-0.307418	1.11941	-0.108956	0	0	-0.292166	0.134793	0.214668	-0.277152	-0.336599	0.305465	0.515553	0.893565	0	0	-0.0690273	-0.293604	0.973428	0.374546	1.04521	0	0
0.3	2.73826	1.51135	-1.25851	0.544809	-0.0216105	1.03252	-0.220034	0.0930257	0.0495849	0	-0.211713	0	0	0.465962	-0.206534	-0.323741	1.07246	-0.10387	0	0	-0.28815	0.132093	0.215851	-0.275639	-0.337903	0.305852	0.519507	0.893106	0	0	-0.0724746	-0.293493	0.964197	0.379607	1.04801	0	0
0.31	2.68668	1.51466	-1.2125	0.545368	-0.0124129	1.03061	-0.230442	0.0916979	0.0503532	0	-0.20997	0	0	0.472208	-0.204492	-0.336231	1.02574	-0.097837	0	0	-0.283466	0.130386	0.218112	-0.275486	-0.338635	0.303329	0.523853	0.894268	0	0	-0.0732677	-0.293819	0.966408	0.383241	1.04249	0	0
0.32	2.62899	1.51764	-1.16035	0.5459	-0.00316937	1.02855	-0.240529	0.0900767	0.0508747	0	-0.20653	0	0	0.476775	-0.201643	-0.345896	0.975777	-0.0921935	0	0	-0.279199	0.128367	0.219936	-0.275263	-0.339329	0.300537	0.528718	0.895623	0	0	-0.0737255	-0.293683	0.966614	0.385575	1.03629	0	0
0.33	2.55135	1.52014	-1.08787	0.54641	0.00605573	1.02632	-0.249565	0.0891862	0.0500762	0	-0.201885	0	0	0.481041	-0.198056	-0.349312	0.924688	-0.0871825	0	0	-0.275346	0.126845	0.221291	-0.274661	-0.34003	0.297832	0.533677	0.897307	0	0	-0.0736123	-0.292908	0.965222	0.386372	1.02906	0	0
0.34	2.46053	1.52221	-1.00206	0.546919	0.0152459	1.02399	-0.257916	0.0885954	0.0484873	0	-0.19692	0	0	0.484811	-0.192632	-0.34499	0.872595	-0.0821166	0	0	-0.271392	0.125392	0.222163	-0.273271	-0.340446	0.295709	0.537726	0.899173	0	0	-0.0729665	-0.29169	0.96471	0.385098	1.02391	0	0
0.35	2.36228	1.52445	-0.909116	0.547449	0.0244218	1.02166	-0.265522	0.0873413	0.0477185	0	-0.192741	0	0	0.487179	-0.183361	-0.330463	0.817623	-0.0755138	0	0	-0.267037	0.123332	0.222809	-0.270443	-0.340316	0.294703	0.539564	0.901226	0	0	-0.0714468	-0.289589	0.965681	0.380879	1.02182	0	0
0.36	1.57546	1.54123	-0.126095	0.547843	0.0338851	1.01739	-0.23688	0.0845654	0.0496431	0	-0.0532145	0	0	0.514636	-0.154377	-0.266619	0.743777	-0.05609	0	0	-0.232912	0.11563	0.159614	-0.204372	-0.347081	0.411911	0.494303	0.875341	0	0	-0.136867	-0.248439	0.635638	0.356186	1.26612	0	0
0.37	1.8803	1.53694	-0.437293	0.548569	0.0432311	1.01624	-0.263676	0.082719	0.0473254	0	-0.0952785	0	0	0.498774	-0.150724	-0.265083	0.698807	-0.0505133	0	0	-0.248271	0.11144	0.174719	-0.209679	-0.347254	0.3983	0.504172	0.873909	0	0	-0.119565	-0.256893	0.690996	0.356607	1.25999	0	0
0.38	1.97902	1.53372	-0.543779	0.549448	0.0528867	1.01458	-0.280796	0.0804723	0.0441444	0	-0.117863	0	0	0.490389	-0.149334	-0.268356	0.662845	-0.0427691	0	0	-0.254781	0.106811	0.185278	-0.212816	-0.346631	0.388376	0.510683	0.874104	0	0	-0.108063	-0.260831	0.724547	0.353145	1.2503	0	0
0.39	2.03946	1.53161	-0.612907	0.550438	0.0627864	1.01285	-0.295499	0.0773592	0.0430495	0	-0.130064	0	0	0.483862	-0.148572	-0.274135	0.634386	-0.034107	0	0	-0.258625	0.100991	0.193369	-0.213469	-0.345253	0.381812	0.514046	0.874836	0	0	-0.0992577	-0.263106	0.746539	0.348018	1.24249	0	0
0.4	2.1069	1.5301	-0.689965	0.551542	0.072856	1.01118	-0.310271	0.0730184	0.0445782	0	-0.138603	0	0	0.476654	-0.147441	-0.280428	0.610786	-0.0254848	0	0	-0.261949	0.0936409	0.20122	-0.213264	-0.343188	0.376276	0.515865	0.876097	0	0	-0.0909374	-0.265245	0.765295	0.342246	1.23547	0	0
